# xmcd
#
# Track frame offsets:
# 150
# 14930
# 34034
# 53463
# 71465
# 76726
# 100458
# 125988
# 146171
#
# Disc length: 2094 seconds
#
#
# Revision: 0
# Processed by: cddbd v1.5.1PL0 Copyright (c) Steve Scherf et al.
# Submitted via: FreeRIP 2.40 
#
DISCID=7e082c09
DTITLE=Gemma Ray Ritual - Navy
DYEAR=2005
DGENRE=Blues
TTITLE0=In a Mire
TTITLE1=Terrible Times
TTITLE2=Wartime, Hero, Romeo
TTITLE3=The Fervid Hills of My Emotion
TTITLE4=Divedd Alaur
TTITLE5=Anchors Away!
TTITLE6=Wolf Cries
TTITLE7=Bring out the Sails (Part I)
TTITLE8=Bring out the Sails (Part II - Pulling the Halyard)
EXTD=
EXTT0=
EXTT1=
EXTT2=
EXTT3=
EXTT4=
EXTT5=
EXTT6=
EXTT7=
EXTT8=
PLAYORDER=
